<svg width="13" height="15" viewBox="0 0 13 15" fill="none" xmlns="http://www.w3.org/2000/svg">
<path d="M1.71891 1.92171C1.71891 1.57959 1.99658 1.30192 2.3387 1.30192H6.50016V4.57796C6.50016 4.97717 6.65875 5.36002 6.94103 5.6423C7.22331 5.92459 7.60617 6.08317 8.00537 6.08317H11.2814V13.078C11.2814 13.2423 11.2161 13.4 11.0999 13.5162C10.9836 13.6325 10.826 13.6978 10.6616 13.6978H2.3387C2.17433 13.6978 2.01668 13.6325 1.90045 13.5162C1.78421 13.4 1.71891 13.2423 1.71891 13.078V1.92171ZM10.9209 5.19775H8.00537C7.84099 5.19775 7.68335 5.13245 7.56711 5.01622C7.45088 4.89999 7.38558 4.74234 7.38558 4.57796V1.66246L10.9209 5.19775ZM2.3387 0.416504C1.9395 0.416504 1.55664 0.575088 1.27436 0.857369C0.99208 1.13965 0.833496 1.52251 0.833496 1.92171V13.078C0.833496 13.4772 0.99208 13.86 1.27436 14.1423C1.55664 14.4246 1.9395 14.5832 2.3387 14.5832H10.6616C11.0608 14.5832 11.4437 14.4246 11.726 14.1423C12.0082 13.86 12.1668 13.4772 12.1668 13.078V5.81507C12.1669 5.61735 12.1279 5.42156 12.0523 5.23889C11.9766 5.05622 11.8657 4.89024 11.7259 4.75044L7.83289 0.857441C7.69309 0.717623 7.52712 0.606718 7.34445 0.531061C7.16177 0.455403 6.96599 0.416476 6.76827 0.416504H2.3387Z" fill="black" stroke="black" stroke-width="0.5"/>
</svg>
