<svg width="18" height="16" viewBox="0 0 18 16" fill="none" xmlns="http://www.w3.org/2000/svg">
<path d="M1.89781 7.25099C1.34583 7.26932 0.918261 7.73145 0.942812 8.28319C0.967362 8.83493 1.43473 9.26734 1.98671 9.24901L1.89781 7.25099ZM17.7382 8.43294C18.1111 8.02984 18.083 7.3973 17.6753 7.02013L11.032 0.873657C10.6243 0.496479 9.99147 0.517492 9.61852 0.920591C9.24557 1.32369 9.27371 1.95623 9.68138 2.33341L15.5866 7.79693L10.1843 13.6359C9.81135 14.039 9.8395 14.6716 10.2472 15.0487C10.6548 15.4259 11.2877 15.4049 11.6606 15.0018L17.7382 8.43294ZM1.94226 8.25L1.98671 9.24901L17.0445 8.74901L17 7.75L16.9556 6.75099L1.89781 7.25099L1.94226 8.25Z" fill="black"/>
</svg>
