<svg width="21" height="16" viewBox="0 0 21 16" fill="none" xmlns="http://www.w3.org/2000/svg">
<path d="M19.4763 9.24935C20.0284 9.26426 20.4921 8.82892 20.5121 8.277C20.5321 7.72508 20.1007 7.26557 19.5486 7.25065L19.4763 9.24935ZM0.31873 7.02426C-0.0857762 7.40399 -0.108677 8.03674 0.26758 8.43755L6.39905 14.9692C6.7753 15.37 7.40824 15.3871 7.81274 15.0074C8.21725 14.6276 8.24015 13.9949 7.86389 13.5941L2.4137 7.78818L8.2731 2.28776C8.6776 1.90803 8.7005 1.27528 8.32425 0.87447C7.94799 0.473658 7.31506 0.456563 6.91055 0.836288L0.31873 7.02426ZM19.5125 8.25L19.5486 7.25065L1.03617 6.75065L1 7.75L0.963836 8.74935L19.4763 9.24935L19.5125 8.25Z" fill="black"/>
</svg>
