<svg width="52" height="57" viewBox="0 0 52 57" fill="none" xmlns="http://www.w3.org/2000/svg">
<path d="M26.0537 50.5771C28.6485 50.5774 30.7516 52.6816 30.752 55.2764V56.1396H1.2334V55.2764C1.23378 52.6815 3.33765 50.5771 5.93262 50.5771H26.0537ZM22.1943 0.688477C23.1133 -0.229832 24.6028 -0.229245 25.5215 0.689453L35.6562 10.8232C36.5746 11.742 36.5744 13.2316 35.6562 14.1504C34.8404 14.9663 33.575 15.0558 32.6582 14.4229L27.4863 19.5957L35.6543 27.7637L35.6465 27.7715C36.6767 27.6847 37.7371 28.035 38.5254 28.8232L50.0205 40.3184C51.4403 41.7385 51.4405 44.0409 50.0205 45.4609C48.6006 46.8806 46.299 46.8804 44.8789 45.4609L37.293 37.875L32.9727 42.1631L32.749 42.3848L32.4355 42.3809L24.0518 42.2773L22.8154 43.5098L22.8164 45.8711H23.6924C25.7005 45.8711 27.3289 47.4997 27.3291 49.5078H4.65527C4.65552 47.4997 6.28381 45.8711 8.29199 45.8711H9.21973L9.24707 38.458L2.88477 32.3115C2.66834 32.3921 2.43522 32.4402 2.19141 32.4463C1.01084 32.4752 0.0294807 31.5419 0 30.3613C-0.0289226 29.181 0.904667 28.1998 2.08496 28.1699L2.30469 28.1758C3.38551 28.2586 4.24967 29.1489 4.27734 30.2559L4.27148 30.4746C4.24806 30.7793 4.15798 31.0659 4.01953 31.3223L10.5195 37.6016L10.75 37.8242L10.749 38.1436L10.7197 45.8711H13.5254L13.5625 36.2725L11.5156 34.208C11.2712 34.3138 11.0023 34.3757 10.7197 34.3828C9.53918 34.4119 8.55805 33.4783 8.52832 32.2979C8.4995 31.1174 9.43283 30.136 10.6133 30.1064L10.832 30.1123C11.9128 30.1952 12.778 31.0855 12.8057 32.1924L12.7988 32.4111C12.7781 32.6799 12.7071 32.9356 12.5957 33.168L14.8467 35.4355L15.0645 35.6562L15.0635 35.9668L15.0264 45.8711H17.3096V38.709L17.5371 38.4883L19.8545 36.2422L20.0732 36.0312L20.377 36.0303H23.4365C23.7191 35.2096 24.4859 34.6099 25.4043 34.5869L25.623 34.5928C26.704 34.6755 27.568 35.5658 27.5957 36.6729L27.5898 36.8916C27.5067 37.9722 26.6167 38.8368 25.5098 38.8643C24.5957 38.8867 23.8032 38.3307 23.4775 37.5312H20.6807L18.8086 39.3447L18.8096 45.8711H21.3154L21.3164 43.1973L21.3154 42.8867L21.5361 42.667L23.2178 40.9902L23.4414 40.7686L23.7568 40.7725L32.1387 40.877L36.2314 36.8145L33.3828 33.9658C32.5946 33.1776 32.2452 32.1171 32.332 31.0869L32.3271 31.0918L24.1582 22.9229L18.9863 28.0947C19.6178 29.0114 19.5272 30.2765 18.7119 31.0918C17.793 32.01 16.3035 32.0093 15.3848 31.0908L5.25 20.9561C4.33193 20.0373 4.33195 18.5486 5.25 17.6299C6.06564 16.8142 7.33034 16.7241 8.24707 17.3564L21.9189 3.68457C21.2881 2.76799 21.3793 1.50354 22.1943 0.688477ZM35.6719 31.8232L43.7324 39.8838C43.2289 40.7071 43.332 41.7969 44.0439 42.5098C44.8269 43.2927 46.0661 43.3419 46.9062 42.6572L47.0693 42.5107C47.8521 41.7275 47.9011 40.4875 47.2158 39.6475L47.0693 39.4844C46.3553 38.7712 45.2624 38.6693 44.4385 39.1758L36.3789 31.1162L35.6719 31.8232ZM44.751 40.1924C45.1955 39.7484 45.9176 39.7486 46.3623 40.1924C46.8065 40.6371 46.8065 41.359 46.3623 41.8037C45.9174 42.248 45.1956 42.2474 44.751 41.8027C44.3073 41.358 44.307 40.6369 44.751 40.1924ZM25.4414 36.0859C25.0891 36.0949 24.8101 36.3889 24.8184 36.7412C24.8275 37.0936 25.1203 37.3727 25.4727 37.3643C25.8252 37.3555 26.105 37.0625 26.0967 36.71C26.0877 36.3575 25.7939 36.0774 25.4414 36.0859ZM10.6504 31.6055C10.2981 31.6146 10.02 31.9085 10.0283 32.2607C10.0375 32.613 10.3302 32.8923 10.6826 32.8838C11.0348 32.8746 11.3139 32.5816 11.3057 32.2295C11.2967 31.877 11.0029 31.597 10.6504 31.6055ZM2.12207 29.6689C1.76995 29.6783 1.49157 29.972 1.5 30.3242C1.50895 30.6766 1.8019 30.9556 2.1543 30.9473C2.50681 30.9384 2.78569 30.6454 2.77734 30.293C2.76836 29.9404 2.47473 29.6602 2.12207 29.6689ZM28.6143 14.3789C27.7789 13.5443 26.424 13.5449 25.5889 14.3799C25.2217 14.7474 25.0148 15.2155 24.9707 15.6953L22.2168 15.7305L22.0127 15.7344L19.1143 18.6328V21.5068L15.7812 24.8389L16.4883 25.5469L20.1143 21.9209V19.0469L22.4326 16.7285L25.1172 16.6934C25.2215 16.9519 25.3794 17.1947 25.5889 17.4043C26.3717 18.1869 27.6111 18.2362 28.4512 17.5518L28.6143 17.4053C29.3972 16.6221 29.4459 15.3821 28.7607 14.542L28.6143 14.3789ZM24.8311 8.17578C23.9957 7.3415 22.6407 7.34205 21.8057 8.17676C21.0938 8.88896 20.9911 9.97845 21.4932 10.8018L15.3262 16.9688V19.8418L13.0527 22.1162L13.7598 22.8232L16.3262 20.2559V17.3818L22.1992 11.5088C22.9632 11.9794 23.9574 11.9277 24.668 11.3486L24.8311 11.2021C25.614 10.4189 25.6629 9.17892 24.9775 8.33887L24.8311 8.17578ZM10.2549 19.3193L10.9619 20.0264L14.5918 16.3965L13.8848 15.6895L10.2549 19.3193ZM26.2959 15.0869C26.7405 14.6425 27.4624 14.6419 27.9072 15.0859C28.3518 15.5307 28.3518 16.2535 27.9072 16.6982C27.4624 17.1423 26.7405 17.1416 26.2959 16.6973C25.852 16.2526 25.852 15.5316 26.2959 15.0869ZM22.5127 8.88379C22.9572 8.43961 23.6792 8.43905 24.124 8.88281C24.5687 9.32753 24.5685 10.0503 24.124 10.4951C23.6792 10.9396 22.9574 10.9389 22.5127 10.4941C22.0689 10.0493 22.0685 9.32833 22.5127 8.88379Z" fill="#0070BB"/>
</svg>
